<?xml version="1.0" encoding="UTF-8"?>
<svg data-bbox="-0.001 0 407.001 159.755" xmlns="http://www.w3.org/2000/svg" viewBox="0 0 407 160" height="160" width="407" data-type="ugc">
	<g>
		<path fill="#000000" d="M388.033 108.9c-1.237 0-2.153-.206-2.749-.618a2.35 2.35 0 0 1-1.031-1.512 10.216 10.216 0 0 1-.206-2.13V79.144c0-.825.069-1.535.206-2.13.138-.642.481-1.123 1.031-1.444.596-.366 1.535-.55 2.818-.55 1.237 0 2.13.161 2.68.482.595.32.962.733 1.099 1.237.184.458.275.916.275 1.374l-.549 1.237c.229-.366.549-.802.962-1.305.412-.55.962-1.077 1.649-1.581.687-.55 1.512-.985 2.474-1.306.962-.366 2.107-.55 3.436-.55.55 0 1.122.07 1.718.207a8.49 8.49 0 0 1 1.855.48 6.511 6.511 0 0 1 1.719.757c.503.32.893.71 1.168 1.168.275.412.412.893.412 1.443 0 1.466-.366 2.703-1.099 3.71-.733 1.009-1.604 1.513-2.612 1.513-.687 0-1.191-.069-1.512-.206a3.561 3.561 0 0 1-.824-.481c-.184-.184-.481-.344-.894-.481-.366-.138-.962-.207-1.786-.207a7.13 7.13 0 0 0-2.131.344 6.527 6.527 0 0 0-1.924 1.03 5.072 5.072 0 0 0-1.443 1.787c-.367.688-.55 1.49-.55 2.406v16.699c0 .779-.069 1.489-.206 2.13-.138.596-.504 1.077-1.1 1.444-.595.366-1.557.549-2.886.549Z"/>
		<path fill="#000000" d="M363.289 109.313c-2.978 0-5.589-.481-7.834-1.444-2.199-.962-4.055-2.267-5.567-3.917a18.61 18.61 0 0 1-3.367-5.635 19.733 19.733 0 0 1-1.099-6.528c0-3.299.755-6.231 2.267-8.797 1.512-2.565 3.597-4.581 6.254-6.047 2.703-1.466 5.795-2.2 9.277-2.2 2.474 0 4.651.39 6.529 1.17 1.878.778 3.436 1.809 4.673 3.091 1.283 1.237 2.245 2.612 2.886 4.124.687 1.512 1.031 2.978 1.031 4.398 0 2.428-.596 4.192-1.787 5.291-1.145 1.1-2.588 1.65-4.329 1.65H354.08c.046 1.558.527 2.909 1.444 4.054.962 1.146 2.153 2.039 3.573 2.68 1.466.596 2.955.894 4.467.894 1.145 0 2.153-.069 3.024-.206a18.94 18.94 0 0 0 2.336-.481 14.869 14.869 0 0 0 1.65-.688c.504-.229.962-.435 1.374-.618a4.17 4.17 0 0 1 1.168-.344c.504-.046 1.008.07 1.512.344.504.275.916.756 1.237 1.443.275.458.458.893.55 1.306.137.366.206.733.206 1.099 0 .917-.55 1.787-1.649 2.612-1.1.779-2.657 1.42-4.673 1.924-1.97.55-4.307.825-7.01.825ZM354.08 89.59h14.088c.779 0 1.375-.115 1.787-.344.412-.275.619-.825.619-1.65a4.464 4.464 0 0 0-.963-2.817c-.641-.87-1.511-1.535-2.611-1.993-1.099-.504-2.382-.756-3.848-.756-1.695 0-3.23.344-4.605 1.031-1.374.641-2.474 1.535-3.298 2.68-.779 1.146-1.169 2.428-1.169 3.849Z"/>
		<path fill="#000000" d="M335.292 108.9c-1.237 0-2.153-.206-2.749-.618-.595-.367-.962-.848-1.099-1.443a10.159 10.159 0 0 1-.206-2.131V79.144c0-.733.068-1.397.206-1.993a2.626 2.626 0 0 1 1.099-1.512c.596-.366 1.535-.55 2.818-.55 1.283 0 2.199.184 2.749.55.595.367.962.87 1.099 1.512.138.642.206 1.352.206 2.13v25.496c0 .779-.068 1.489-.206 2.13-.137.596-.504 1.077-1.099 1.444-.55.366-1.489.549-2.818.549Zm0-40.477c-1.328 0-2.314-.183-2.955-.55a2.843 2.843 0 0 1-1.168-1.649 11.542 11.542 0 0 1-.206-2.267c0-.87.068-1.627.206-2.268.183-.642.595-1.146 1.237-1.512.641-.412 1.626-.619 2.955-.619 1.374 0 2.359.207 2.955.619a2.84 2.84 0 0 1 1.168 1.65c.183.64.275 1.397.275 2.267 0 .779-.092 1.512-.275 2.2a2.565 2.565 0 0 1-1.168 1.58c-.596.366-1.604.55-3.024.55Z"/>
		<path fill="#000000" d="M309.558 108.419c-2.245 0-4.261-.412-6.048-1.237a13.517 13.517 0 0 1-4.467-3.573c-1.191-1.558-2.107-3.345-2.749-5.36-.595-2.016-.893-4.192-.893-6.529.046-2.337.389-4.513 1.031-6.528.641-2.062 1.557-3.849 2.749-5.36a13.527 13.527 0 0 1 4.467-3.574c1.74-.87 3.71-1.306 5.91-1.306 2.107 0 4.077.435 5.91 1.306a15.418 15.418 0 0 1 4.948 3.642c1.466 1.558 2.611 3.367 3.436 5.429.824 2.016 1.237 4.192 1.237 6.529 0 2.382-.413 4.58-1.237 6.597-.825 2.016-1.948 3.779-3.368 5.291a15.477 15.477 0 0 1-4.948 3.436 14.7 14.7 0 0 1-5.978 1.237Zm-13.745 14.294c-1.237 0-2.153-.183-2.749-.549-.595-.367-.962-.848-1.099-1.444-.138-.595-.206-1.282-.206-2.061V79.144c0-.779.068-1.466.206-2.062.137-.595.481-1.076 1.031-1.443.595-.412 1.512-.618 2.749-.618 1.191 0 2.13.183 2.817.55.687.366 1.145.984 1.375 1.855v41.164c.045.779-.023 1.466-.207 2.062-.137.641-.504 1.145-1.099 1.512-.596.366-1.535.549-2.818.549Zm12.645-21.99c1.604 0 3.047-.367 4.329-1.1a8.351 8.351 0 0 0 3.024-3.161c.779-1.375 1.168-2.91 1.168-4.605 0-1.74-.389-3.275-1.168-4.604-.733-1.329-1.741-2.36-3.024-3.092-1.282-.78-2.725-1.169-4.329-1.169-1.558 0-2.978.39-4.261 1.169a8.891 8.891 0 0 0-3.092 3.16c-.733 1.284-1.1 2.796-1.1 4.537 0 1.695.367 3.23 1.1 4.604a8.892 8.892 0 0 0 3.092 3.161c1.283.733 2.703 1.1 4.261 1.1Z"/>
		<path fill="#000000" d="M270.835 108.419c-2.245 0-4.261-.412-6.048-1.237a13.517 13.517 0 0 1-4.467-3.573c-1.191-1.558-2.107-3.345-2.749-5.36-.595-2.016-.893-4.192-.893-6.529.046-2.337.39-4.513 1.031-6.528.641-2.062 1.558-3.849 2.749-5.36a13.527 13.527 0 0 1 4.467-3.574c1.741-.87 3.711-1.306 5.91-1.306 2.107 0 4.077.435 5.91 1.306a15.418 15.418 0 0 1 4.948 3.642c1.466 1.558 2.611 3.367 3.436 5.429.824 2.016 1.237 4.192 1.237 6.529 0 2.382-.413 4.58-1.237 6.597-.825 2.016-1.947 3.779-3.368 5.291a15.477 15.477 0 0 1-4.948 3.436 14.7 14.7 0 0 1-5.978 1.237Zm-13.745 14.294c-1.237 0-2.153-.183-2.748-.549-.596-.367-.963-.848-1.1-1.444-.137-.595-.206-1.282-.206-2.061V79.144c0-.779.069-1.466.206-2.062.137-.595.481-1.076 1.031-1.443.595-.412 1.512-.618 2.749-.618 1.191 0 2.13.183 2.817.55.688.366 1.146.984 1.375 1.855v41.164c.046.779-.023 1.466-.206 2.062-.138.641-.504 1.145-1.1 1.512-.596.366-1.535.549-2.818.549Zm12.645-21.99c1.604 0 3.047-.367 4.33-1.1a8.356 8.356 0 0 0 3.023-3.161c.779-1.375 1.169-2.91 1.169-4.605 0-1.74-.39-3.275-1.169-4.604-.733-1.329-1.741-2.36-3.023-3.092-1.283-.78-2.726-1.169-4.33-1.169-1.558 0-2.978.39-4.261 1.169a8.9 8.9 0 0 0-3.092 3.16c-.733 1.284-1.1 2.796-1.1 4.537 0 1.695.367 3.23 1.1 4.604a8.9 8.9 0 0 0 3.092 3.161c1.283.733 2.703 1.1 4.261 1.1Z"/>
		<path fill="#000000" d="M242.498 108.763c-1.328 0-2.313-.252-2.955-.756-.641-.504-.962-1.191-.962-2.062l.481-2.267c-.366.595-.985 1.305-1.855 2.13-.871.779-2.016 1.489-3.436 2.13-1.42.596-3.138.894-5.154.894-2.154 0-4.192-.436-6.116-1.306a17.183 17.183 0 0 1-5.017-3.711 20.213 20.213 0 0 1-3.436-5.429c-.825-2.062-1.237-4.26-1.237-6.597 0-2.245.412-4.353 1.237-6.323a18.38 18.38 0 0 1 3.505-5.36 16.195 16.195 0 0 1 5.016-3.642 13.9 13.9 0 0 1 6.048-1.375c1.878 0 3.459.252 4.741.756 1.329.504 2.452 1.146 3.368 1.925.916.733 1.672 1.511 2.268 2.336l-.413-1.993c0-1.008.321-1.764.962-2.268.642-.55 1.65-.824 3.024-.824 1.283 0 2.199.206 2.749.618.55.367.893.894 1.031 1.58.137.642.206 1.375.206 2.2v25.152c0 .779-.069 1.489-.206 2.13-.138.642-.504 1.146-1.1 1.512-.55.367-1.466.55-2.749.55Zm-12.644-7.972c1.557 0 2.955-.389 4.192-1.168 1.237-.779 2.222-1.833 2.955-3.161.779-1.375 1.168-2.886 1.168-4.536 0-1.787-.389-3.344-1.168-4.673-.779-1.329-1.81-2.36-3.093-3.092-1.237-.78-2.634-1.169-4.192-1.169-1.695 0-3.207.413-4.535 1.237a8.574 8.574 0 0 0-3.162 3.23c-.733 1.329-1.099 2.84-1.099 4.536 0 1.65.389 3.138 1.168 4.467a8.72 8.72 0 0 0 3.161 3.16c1.375.78 2.91 1.169 4.605 1.169Z"/>
		<path fill="#000000" d="M171.806 108.832c-1.191 0-2.085-.207-2.68-.619-.596-.366-.985-.87-1.169-1.512a7.477 7.477 0 0 1-.275-2.061V64.919c0-.733.069-1.398.207-1.993.183-.642.572-1.146 1.168-1.512.595-.413 1.535-.619 2.817-.619l12.92.07c3.344 0 6.414.572 9.209 1.717 2.84 1.145 5.291 2.772 7.353 4.88 2.062 2.107 3.642 4.627 4.742 7.559 1.145 2.886 1.718 6.07 1.718 9.552 0 3.573-.573 6.85-1.718 9.827-1.146 2.978-2.749 5.544-4.811 7.697-2.061 2.153-4.513 3.825-7.353 5.017-2.795 1.145-5.91 1.718-9.346 1.718h-12.782Zm4.192-8.316h8.796c2.932 0 5.498-.641 7.697-1.924 2.199-1.329 3.894-3.161 5.085-5.498 1.237-2.336 1.856-5.062 1.856-8.177 0-3.162-.619-5.91-1.856-8.247-1.191-2.382-2.909-4.215-5.154-5.498-2.199-1.328-4.765-1.993-7.697-1.993h-8.727v31.337Z"/>
		<path stroke-width="5" stroke="#CCCCCC" d="m42.169 22.984 31.46 35.655" fill="none"/>
		<path stroke-width="5" stroke="#CCCCCC" d="m123.604 24.407-16.779 33.557" fill="none"/>
		<path stroke-width="5" stroke="#CCCCCC" d="M31.46 84.653h27.265" fill="none"/>
		<path stroke-width="5" stroke="#CCCCCC" d="M77.913 147.84 88.4 110.088" fill="none"/>
		<path fill="#D4D4D4" d="M115.353 19.233c0 5.792 4.695 10.487 10.487 10.487s10.487-4.695 10.487-10.487-4.695-10.487-10.487-10.487-10.487 4.695-10.487 10.487z"/>
		<path fill="#D4D4D4" d="M67.114 149.268c0 5.792 4.695 10.487 10.487 10.487s10.487-4.695 10.487-10.487-4.695-10.487-10.487-10.487-10.487 4.695-10.487 10.487z"/>
		<path fill="#D4D4D4" d="M20.617 25.168c0 13.9 11.268 25.168 25.168 25.168 13.9 0 25.168-11.268 25.168-25.168C70.953 11.268 59.685 0 45.785 0c-13.9 0-25.168 11.268-25.168 25.168z"/>
		<path fill="#D4D4D4" d="M-.001 84.251c0 9.267 7.512 16.779 16.779 16.779s16.779-7.512 16.779-16.779-7.512-16.779-16.779-16.779S-.001 74.984-.001 84.251z"/>
		<path fill="url(#38282016-aad7-424a-a5d0-ec5d157c3a56)" d="M122.954 54.977c8.002 0 14.489 6.205 14.489 13.859v33.387c0 5.914-5.013 10.709-11.196 10.709-1.819 0-3.293 1.41-3.293 3.15v10.709c0 1.483-.907 2.829-2.319 3.442-1.412.612-3.068.379-4.234-.598l-18.095-15.144a6.761 6.761 0 0 0-4.337-1.559H72.902c-8.002 0-14.489-6.205-14.489-13.859V68.836c0-7.654 6.487-13.859 14.489-13.859h50.052Z"/>
		<defs fill="none">
			<linearGradient gradientUnits="userSpaceOnUse" y2="132.71" x2="134.346" y1="55.792" x1="57.572" id="38282016-aad7-424a-a5d0-ec5d157c3a56">
				<stop stop-color="#CD62FF"/>
				<stop stop-color="#6BBCFF" offset="1"/>
			</linearGradient>
		</defs>
	</g>
</svg>
